HIERARCHY
ROOT _no_name_
{
	OFFSET 0 0 0
	CHANNELS 9 Xposition Yposition Zposition Zrotation Xrotation Yrotation Xscale Yscale Zscale
	JOINT Main__Hips_
	{
		OFFSET 0 -0.19154 -0.8505
		CHANNELS 9 Xposition Yposition Zposition Zrotation Xrotation Yrotation Xscale Yscale Zscale
		JOINT LeftUpperLeg
		{
			OFFSET 0.1 -1.49012e-008 0.05
			CHANNELS 9 Xposition Yposition Zposition Zrotation Xrotation Yrotation Xscale Yscale Zscale
			JOINT LeftLowerLeg
			{
				OFFSET 0.013 -0.00871079 0.420828
				CHANNELS 9 Xposition Yposition Zposition Zrotation Xrotation Yrotation Xscale Yscale Zscale
				JOINT LeftFoot
				{
					OFFSET -0.013 -0.0476022 0.44835
					CHANNELS 9 Xposition Yposition Zposition Zrotation Xrotation Yrotation Xscale Yscale Zscale
					JOINT LeftToes
					{
						OFFSET -1.49012e-008 0.0857705 0.0988353
						CHANNELS 9 Xposition Yposition Zposition Zrotation Xrotation Yrotation Xscale Yscale Zscale
						End Site
						{
							OFFSET 0 0 0
						}
					}
				}
			}
		}
		JOINT RightUpperLeg
		{
			OFFSET -0.1 -1.49012e-008 0.05
			CHANNELS 9 Xposition Yposition Zposition Zrotation Xrotation Yrotation Xscale Yscale Zscale
			JOINT RightLowerLeg
			{
				OFFSET -0.023 -0.00871083 0.420828
				CHANNELS 9 Xposition Yposition Zposition Zrotation Xrotation Yrotation Xscale Yscale Zscale
				JOINT RightFoot
				{
					OFFSET 0.013 -0.0515128 0.447918
					CHANNELS 9 Xposition Yposition Zposition Zrotation Xrotation Yrotation Xscale Yscale Zscale
					JOINT RightToes
					{
						OFFSET -1.49012e-008 0.0849047 0.09958
						CHANNELS 9 Xposition Yposition Zposition Zrotation Xrotation Yrotation Xscale Yscale Zscale
						End Site
						{
							OFFSET 0 0 0
						}
					}
				}
			}
		}
		JOINT LowerBack
		{
			OFFSET 0 1.49012e-008 -0.09
			CHANNELS 9 Xposition Yposition Zposition Zrotation Xrotation Yrotation Xscale Yscale Zscale
			JOINT Back
			{
				OFFSET 0 2.98023e-008 -0.14
				CHANNELS 9 Xposition Yposition Zposition Zrotation Xrotation Yrotation Xscale Yscale Zscale
				JOINT Chest
				{
					OFFSET 0 2.98023e-008 -0.18
					CHANNELS 9 Xposition Yposition Zposition Zrotation Xrotation Yrotation Xscale Yscale Zscale
					JOINT Neck
					{
						OFFSET 0 -0.027 -0.21
						CHANNELS 9 Xposition Yposition Zposition Zrotation Xrotation Yrotation Xscale Yscale Zscale
						End Site
						{
							OFFSET 0 0 0
						}
					}
					JOINT LeftUpperArm
					{
						OFFSET 0.195 -0.045 -0.11
						CHANNELS 9 Xposition Yposition Zposition Zrotation Xrotation Yrotation Xscale Yscale Zscale
						JOINT LeftLowerArm
						{
							OFFSET 0.243952 0.015 -0.236881
							CHANNELS 9 Xposition Yposition Zposition Zrotation Xrotation Yrotation Xscale Yscale Zscale
							JOINT LeftHand
							{
								OFFSET -0.10817 -0.01 -0.197356
								CHANNELS 9 Xposition Yposition Zposition Zrotation Xrotation Yrotation Xscale Yscale Zscale
								JOINT LTumb1
								{
									OFFSET -0.0742892 -0.00692074 0.00622809
									CHANNELS 9 Xposition Yposition Zposition Zrotation Xrotation Yrotation Xscale Yscale Zscale
									JOINT LTumb2
									{
										OFFSET -0.0395306 0.00264047 0.00256562
										CHANNELS 9 Xposition Yposition Zposition Zrotation Xrotation Yrotation Xscale Yscale Zscale
										End Site
										{
											OFFSET 0 0 0
										}
									}
								}
								JOINT LForeFinger1
								{
									OFFSET -0.111162 -0.00364777 -0.0459138
									CHANNELS 9 Xposition Yposition Zposition Zrotation Xrotation Yrotation Xscale Yscale Zscale
									JOINT LForeFinger2
									{
										OFFSET -0.0271281 0.0038652 -0.0137647
										CHANNELS 9 Xposition Yposition Zposition Zrotation Xrotation Yrotation Xscale Yscale Zscale
										JOINT LForeFinger3
										{
											OFFSET -0.02164 0.00243032 -0.0115697
											CHANNELS 9 Xposition Yposition Zposition Zrotation Xrotation Yrotation Xscale Yscale Zscale
											End Site
											{
												OFFSET 0 0 0
											}
										}
									}
								}
								JOINT LMiddleFinger1
								{
									OFFSET -0.0958544 -0.00581561 -0.0723934
									CHANNELS 9 Xposition Yposition Zposition Zrotation Xrotation Yrotation Xscale Yscale Zscale
									JOINT LMiddleFinger2
									{
										OFFSET -0.0281272 0.00312716 -0.0166291
										CHANNELS 9 Xposition Yposition Zposition Zrotation Xrotation Yrotation Xscale Yscale Zscale
										JOINT LMiddleFinger3
										{
											OFFSET -0.0239188 0.000117183 -0.0155958
											CHANNELS 9 Xposition Yposition Zposition Zrotation Xrotation Yrotation Xscale Yscale Zscale
											End Site
											{
												OFFSET 0 0 0
											}
										}
									}
								}
								JOINT LRingFinger1
								{
									OFFSET -0.0769636 -0.00510299 -0.0951287
									CHANNELS 9 Xposition Yposition Zposition Zrotation Xrotation Yrotation Xscale Yscale Zscale
									JOINT LRingFinger2
									{
										OFFSET -0.0201939 0.00322482 -0.0202483
										CHANNELS 9 Xposition Yposition Zposition Zrotation Xrotation Yrotation Xscale Yscale Zscale
										JOINT LRingFinger3
										{
											OFFSET -0.0177445 0.000979602 -0.0178207
											CHANNELS 9 Xposition Yposition Zposition Zrotation Xrotation Yrotation Xscale Yscale Zscale
											End Site
											{
												OFFSET 0 0 0
											}
										}
									}
								}
								JOINT LLittleFinger1
								{
									OFFSET -0.0490127 -0.00705363 -0.110919
									CHANNELS 9 Xposition Yposition Zposition Zrotation Xrotation Yrotation Xscale Yscale Zscale
									JOINT LLittleFinger2
									{
										OFFSET -0.00847182 0.00682081 -0.0137579
										CHANNELS 9 Xposition Yposition Zposition Zrotation Xrotation Yrotation Xscale Yscale Zscale
										JOINT LLittleFinger3
										{
											OFFSET -0.0121604 0.00322708 -0.0201262
											CHANNELS 9 Xposition Yposition Zposition Zrotation Xrotation Yrotation Xscale Yscale Zscale
											End Site
											{
												OFFSET 0 0 0
											}
										}
									}
								}
							}
						}
					}
					JOINT RightUpperArm
					{
						OFFSET -0.195 -0.045 -0.11
						CHANNELS 9 Xposition Yposition Zposition Zrotation Xrotation Yrotation Xscale Yscale Zscale
						JOINT RightLowerArm
						{
							OFFSET -0.17433 0.015 -0.291949
							CHANNELS 9 Xposition Yposition Zposition Zrotation Xrotation Yrotation Xscale Yscale Zscale
							JOINT RightHand
							{
								OFFSET -0.0630639 -0.01 -0.216039
								CHANNELS 9 Xposition Yposition Zposition Zrotation Xrotation Yrotation Xscale Yscale Zscale
								JOINT RTumb1
								{
									OFFSET 0.0370404 -0.00692074 -0.0646968
									CHANNELS 9 Xposition Yposition Zposition Zrotation Xrotation Yrotation Xscale Yscale Zscale
									JOINT RTumb2
									{
										OFFSET 0.0190315 0.00264049 -0.0347426
										CHANNELS 9 Xposition Yposition Zposition Zrotation Xrotation Yrotation Xscale Yscale Zscale
										End Site
										{
											OFFSET 0 0 0
										}
									}
								}
								JOINT RForeFinger1
								{
									OFFSET 0.0053671 -0.00364777 -0.120151
									CHANNELS 9 Xposition Yposition Zposition Zrotation Xrotation Yrotation Xscale Yscale Zscale
									JOINT RForeFinger2
									{
										OFFSET -0.00101036 0.0038652 -0.0304037
										CHANNELS 9 Xposition Yposition Zposition Zrotation Xrotation Yrotation Xscale Yscale Zscale
										JOINT RForeFinger3
										{
											OFFSET -0.00134036 0.00243032 -0.024502
											CHANNELS 9 Xposition Yposition Zposition Zrotation Xrotation Yrotation Xscale Yscale Zscale
											End Site
											{
												OFFSET 0 0 0
											}
										}
									}
								}
								JOINT RMiddleFinger1
								{
									OFFSET -0.0251009 -0.00581561 -0.117468
									CHANNELS 9 Xposition Yposition Zposition Zrotation Xrotation Yrotation Xscale Yscale Zscale
									JOINT RMiddleFinger2
									{
										OFFSET -0.00318408 0.00312716 -0.0325197
										CHANNELS 9 Xposition Yposition Zposition Zrotation Xrotation Yrotation Xscale Yscale Zscale
										JOINT RMiddleFinger3
										{
											OFFSET -0.00402611 0.000117183 -0.0282688
											CHANNELS 9 Xposition Yposition Zposition Zrotation Xrotation Yrotation Xscale Yscale Zscale
											End Site
											{
												OFFSET 0 0 0
											}
										}
									}
								}
								JOINT RRingFinger1
								{
									OFFSET -0.0536896 -0.00510299 -0.109956
									CHANNELS 9 Xposition Yposition Zposition Zrotation Xrotation Yrotation Xscale Yscale Zscale
									JOINT RRingFinger2
									{
										OFFSET -0.00981691 0.00322482 -0.0268592
										CHANNELS 9 Xposition Yposition Zposition Zrotation Xrotation Yrotation Xscale Yscale Zscale
										JOINT RRingFinger3
										{
											OFFSET -0.00865197 0.000979602 -0.0236135
											CHANNELS 9 Xposition Yposition Zposition Zrotation Xrotation Yrotation Xscale Yscale Zscale
											End Site
											{
												OFFSET 0 0 0
											}
										}
									}
								}
								JOINT RLittleFinger1
								{
									OFFSET -0.0798134 -0.00705363 -0.0912971
									CHANNELS 9 Xposition Yposition Zposition Zrotation Xrotation Yrotation Xscale Yscale Zscale
									JOINT RLittleFinger2
									{
										OFFSET -0.0088886 0.00682081 -0.0134925
										CHANNELS 9 Xposition Yposition Zposition Zrotation Xrotation Yrotation Xscale Yscale Zscale
										JOINT RLittleFinger3
										{
											OFFSET -0.0131014 0.00322708 -0.0195267
											CHANNELS 9 Xposition Yposition Zposition Zrotation Xrotation Yrotation Xscale Yscale Zscale
											End Site
											{
												OFFSET 0 0 0
											}
										}
									}
								}
							}
						}
					}
				}
			}
		}
	}
	JOINT _no_name_1
	{
		OFFSET 0 0 0
		CHANNELS 9 Xposition Yposition Zposition Zrotation Xrotation Yrotation Xscale Yscale Zscale
		End Site
		{
			OFFSET 0 0 0
		}
	}
}
MOTION
Frames: 4
Frame Time: 0.050000
0 0 0 0 0 0 1 1 1 0 1.05 -7.50303e-009 0 90 0 1 1 1 0.1 -0.19154 -0.8005 0 -5 0 1 1 1 0.113 -0.200251 -0.379672 8.14998e-013 2.49999 -1.70172e-013 1 1 1 0.1 -0.247853 0.0686786 -1.76825e-013 -6.42747e-008 1.84766e-015 1 1 1 0.1 -0.162082 0.167514 -1.76825e-013 -6.42747e-008 1.84766e-015 1 1 1 -0.1 -0.19154 -0.8005 -1.86245e-013 -5 2.40486e-012 1 1 1 -0.123 -0.200251 -0.379672 3.05777e-012 2.00001 -2.02093e-012 1 1 1 -0.11 -0.251763 0.0682461 3.9503e-013 -6.88368e-008 -2.47436e-014 1 1 1 -0.11 -0.166859 0.167826 3.9503e-013 -6.88368e-008 -2.47437e-014 1 1 1 0 -0.19154 -0.9405 0 2.03556e-013 0 1 1 1 0 -0.19154 -1.0805 0 2.03556e-013 0 1 1 1 0 -0.19154 -1.2605 0 2.03556e-013 0 1 1 1 0 -0.21854 -1.4705 0 2.03556e-013 0 1 1 1 0.195 -0.23654 -1.3705 0.860216 -4.84824 -124.926 1 1 1 0.438952 -0.22154 -1.60738 -5.82504e-007 -2.08122e-006 -85 1 1 1 0.330782 -0.23154 -1.80474 -90 -30 -50 1 1 1 0.256493 -0.23846 -1.79851 8.89891e-007 -5.31427e-006 -30 1 1 1 0.216962 -0.23582 -1.79594 -2.40848e-014 -2.03555e-014 -9.32381e-007 1 1 1 0.21962 -0.235187 -1.85065 7.93989e-007 -2.59267e-006 -15 1 1 1 0.192492 -0.231322 -1.86442 8.67577e-006 -5.00896e-006 -9.3238e-007 1 1 1 0.170852 -0.228892 -1.87598 -13.0643 7.43546 0.85257 1 1 1 0.234928 -0.237355 -1.87713 -7.10706 7.05301 -9.56145 1 1 1 0.2068 -0.234228 -1.89376 -12.3796 8.53725 0.927598 1 1 1 0.182882 -0.234111 -1.90935 -29.8376 19.2075 5.16243 1 1 1 0.253818 -0.236643 -1.89987 -7.10707 7.05301 0.438546 1 1 1 0.233625 -0.233418 -1.92011 -7.10707 7.05301 0.438544 1 1 1 0.21588 -0.232438 -1.93793 -3.54002 3.53328 0.109217 1 1 1 0.281769 -0.238593 -1.91566 -3.54002 3.53328 15.1092 1 1 1 0.273298 -0.231772 -1.92941 -2.50476 4.32874 0.0946781 1 1 1 0.261137 -0.228545 -1.94954 -2.40848e-014 -2.03555e-014 -9.32381e-007 1 1 1 -0.195 -0.23654 -1.3705 -1.25711 -4.66308 134.894 1 1 1 -0.36933 -0.22154 -1.66245 1.31757e-006 -2.43246e-006 30 1 1 1 -0.432394 -0.23154 -1.87849 90 15 -15 1 1 1 -0.395354 -0.23846 -1.94318 -4.62645e-006 -7.53974e-006 30 1 1 1 -0.376322 -0.23582 -1.97793 8.03807e-014 -2.32265e-014 4.73683e-007 1 1 1 -0.427027 -0.235187 -1.99864 -2.80983e-006 -3.44779e-006 15 1 1 1 -0.428037 -0.231322 -2.02904 8.03807e-014 -2.32265e-014 4.73683e-007 1 1 1 -0.429378 -0.228892 -2.05354 -0.43688 4.98093 0.0190032 1 1 1 -0.457495 -0.237355 -1.99596 -1.71395 4.69777 10.0703 1 1 1 -0.460679 -0.234228 -2.02848 8.03807e-014 -2.32265e-014 4.73683e-007 1 1 1 -0.464705 -0.234111 -2.05674 -0.870387 4.92386 0.0374254 1 1 1 -0.486084 -0.236643 -1.98844 5.05877e-013 9.31347e-014 -5.28629e-007 1 1 1 -0.495901 -0.233418 -2.0153 -3.45118 9.39129 0.283561 1 1 1 -0.504553 -0.232438 -2.03892 -3.45118 9.39128 0.283561 1 1 1 -0.512207 -0.238593 -1.96979 -3.45118 9.39129 -14.7164 1 1 1 -0.521096 -0.231772 -1.98328 -2.87278 4.09405 0.102702 1 1 1 -0.534197 -0.228545 -2.0028 -8.73738 12.2403 0.938665 1 1 1 0 0 0 0 0 0 1 1 1 
0 0 0 0 0 0 1 1 1 0 1.03791 -0.0271581 0 90 0 1 1 1 0.1 -0.19154 -0.8005 0 -13.75 0 1 1 1 0.113 -0.200251 -0.379672 1.35207e-012 15 -6.47387e-013 1 1 1 0.1 -0.247853 0.0686786 1.0756e-013 -2.5 3.15747e-014 1 1 1 0.1 -0.162082 0.167514 -4.79286e-013 -1.25 4.05665e-014 1 1 1 -0.1 -0.19154 -0.8005 -1.6886e-012 -13.75 2.56908e-012 1 1 1 -0.123 -0.200251 -0.379672 2.01624e-012 14.5 -6.39371e-013 1 1 1 -0.11 -0.251763 0.0682461 7.65991e-013 -2.5 8.47798e-014 1 1 1 -0.11 -0.166859 0.167826 1.62959e-013 -1.25 3.30308e-015 1 1 1 0 -0.19154 -0.9405 0 -1.25 0 1 1 1 0 -0.19154 -1.0805 0 -1.25 0 1 1 1 0 -0.19154 -1.2605 0 -1.25 0 1 1 1 0 -0.21854 -1.4705 0 -3.75 0 1 1 1 0.195 -0.23654 -1.3705 0.877437 -12.3474 -124.811 1 1 1 0.438952 -0.22154 -1.60738 4.09691 2.86771 -85.0277 1 1 1 0.330782 -0.23154 -1.80474 -90 -30 -50 1 1 1 0.256493 -0.23846 -1.79851 9.19908e-007 -4.92614e-006 -27.8571 1 1 1 0.216962 -0.23582 -1.79594 -2.40848e-014 -2.03555e-014 -9.32381e-007 1 1 1 0.21962 -0.235187 -1.85065 7.60052e-007 -2.40143e-006 -13.9286 1 1 1 0.192492 -0.231322 -1.86442 8.05607e-006 -4.65117e-006 -9.3238e-007 1 1 1 0.170852 -0.228892 -1.87598 -12.1217 6.91264 0.734852 1 1 1 0.234928 -0.237355 -1.87713 -6.63677 6.51134 -8.90452 1 1 1 0.2068 -0.234228 -1.89376 -11.4835 7.93599 0.799221 1 1 1 0.182882 -0.234111 -1.90935 -27.5581 17.9497 4.43606 1 1 1 0.253818 -0.236643 -1.89987 -6.5948 6.55154 0.377869 1 1 1 0.233625 -0.233418 -1.92011 -6.5948 6.55154 0.377869 1 1 1 0.21588 -0.232438 -1.93793 -3.28658 3.28119 0.0941563 1 1 1 0.281769 -0.238593 -1.91566 -3.25703 3.3131 14.0216 1 1 1 0.273298 -0.231772 -1.92941 -2.32524 4.01972 0.0816107 1 1 1 0.261137 -0.228545 -1.94954 -2.40848e-014 -2.03555e-014 -9.32381e-007 1 1 1 -0.195 -0.23654 -1.3705 -1.28172 -12.1612 134.726 1 1 1 -0.36933 -0.22154 -1.66245 -3.53603 3.53559 29.9998 1 1 1 -0.432394 -0.23154 -1.87849 90 15 -15 1 1 1 -0.395354 -0.23846 -1.94318 -4.43316e-006 -6.93058e-006 27.8571 1 1 1 -0.376322 -0.23582 -1.97793 8.03807e-014 -2.32265e-014 4.73683e-007 1 1 1 -0.427027 -0.235187 -1.99864 -2.63999e-006 -3.17824e-006 13.9286 1 1 1 -0.428037 -0.231322 -2.02904 8.03807e-014 -2.32265e-014 4.73683e-007 1 1 1 -0.429378 -0.228892 -2.05354 -0.405533 4.62515 0.01638 1 1 1 -0.457495 -0.237355 -1.99596 -1.56401 4.37291 9.34462 1 1 1 -0.460679 -0.234228 -2.02848 8.03807e-014 -2.32265e-014 4.73683e-007 1 1 1 -0.464705 -0.234111 -2.05674 -0.807942 4.57218 0.0322566 1 1 1 -0.486084 -0.236643 -1.98844 5.05877e-013 9.31347e-014 -5.28629e-007 1 1 1 -0.495901 -0.233418 -2.0153 -3.20067 8.72121 0.244129 1 1 1 -0.504553 -0.232438 -2.03892 -3.20067 8.72121 0.244129 1 1 1 -0.512207 -0.238593 -1.96979 -3.28426 8.6942 -13.6739 1 1 1 -0.521096 -0.231772 -1.98328 -2.66695 3.80183 0.0885309 1 1 1 -0.534197 -0.228545 -2.0028 -8.09597 11.3721 0.807426 1 1 1 0 0 0 0 0 0 1 1 1 
0 0 0 0 0 0 1 1 1 0 1.01616 -0.0543162 0 90 0 1 1 1 0.1 -0.19154 -0.8005 0 -22.5 0 1 1 1 0.113 -0.200251 -0.379672 1.74078e-012 27.5 -2.85515e-013 1 1 1 0.1 -0.247853 0.0686786 -1.77549e-013 -4.99999 8.65344e-014 1 1 1 0.1 -0.162082 0.167514 1.0756e-013 -2.49999 7.22992e-014 1 1 1 -0.1 -0.19154 -0.8005 -2.22194e-012 -22.5 4.61634e-012 1 1 1 -0.123 -0.200251 -0.379672 3.15996e-012 27 -2.39376e-012 1 1 1 -0.11 -0.251763 0.0682461 8.40639e-013 -4.99999 2.17564e-013 1 1 1 -0.11 -0.166859 0.167826 -4.90067e-014 -2.49999 6.64058e-014 1 1 1 0 -0.19154 -0.9405 0 -2.49999 0 1 1 1 0 -0.19154 -1.0805 0 -2.49999 0 1 1 1 0 -0.19154 -1.2605 0 -2.49999 0 1 1 1 0 -0.21854 -1.4705 0 -7.49999 0 1 1 1 0.195 -0.23654 -1.3705 0.911267 -19.8465 -124.689 1 1 1 0.438952 -0.22154 -1.60738 8.21063 5.72609 -85.2614 1 1 1 0.330782 -0.23154 -1.80474 -90 -30 -50 1 1 1 0.256493 -0.23846 -1.79851 9.35392e-007 -4.53717e-006 -25.7143 1 1 1 0.216962 -0.23582 -1.79594 -2.40848e-014 -2.03555e-014 -9.32381e-007 1 1 1 0.21962 -0.235187 -1.85065 7.22545e-007 -2.21085e-006 -12.8571 1 1 1 0.192492 -0.231322 -1.86442 7.43637e-006 -4.29339e-006 -9.3238e-007 1 1 1 0.170852 -0.228892 -1.87598 -11.1812 6.38798 0.625927 1 1 1 0.234928 -0.237355 -1.87713 -6.16075 5.97509 -8.24381 1 1 1 0.2068 -0.234228 -1.89376 -10.5901 7.33281 0.680523 1 1 1 0.182882 -0.234111 -1.90935 -25.3112 16.6658 3.76748 1 1 1 0.253818 -0.236643 -1.89987 -6.08356 6.04956 0.321765 1 1 1 0.233625 -0.233418 -1.92011 -6.08356 6.04956 0.321765 1 1 1 0.21588 -0.232438 -1.93793 -3.03328 3.02904 0.0802158 1 1 1 0.281769 -0.238593 -1.91566 -2.97834 3.0876 12.9353 1 1 1 0.273298 -0.231772 -1.92941 -2.14585 3.71066 0.0695171 1 1 1 0.261137 -0.228545 -1.94954 -2.40848e-014 -2.03555e-014 -9.32381e-007 1 1 1 -0.195 -0.23654 -1.3705 -1.33052 -19.6593 134.549 1 1 1 -0.36933 -0.22154 -1.66245 -7.09234 7.06444 30.2191 1 1 1 -0.432394 -0.23154 -1.87849 90 15 -15 1 1 1 -0.395354 -0.23846 -1.94318 -4.21722e-006 -6.32907e-006 25.7143 1 1 1 -0.376322 -0.23582 -1.97793 8.03807e-014 -2.32265e-014 4.73683e-007 1 1 1 -0.427027 -0.235187 -1.99864 -2.46514e-006 -2.91191e-006 12.8571 1 1 1 -0.428037 -0.231322 -2.02904 8.03807e-014 -2.32265e-014 4.73683e-007 1 1 1 -0.429378 -0.228892 -2.05354 -0.374218 4.26938 0.0139509 1 1 1 -0.457495 -0.237355 -1.99596 -1.41827 4.04619 8.62009 1 1 1 -0.460679 -0.234228 -2.02848 8.03807e-014 -2.32265e-014 4.73683e-007 1 1 1 -0.464705 -0.234111 -2.05674 -0.745558 4.22049 0.0274735 1 1 1 -0.486084 -0.236643 -1.98844 5.05877e-013 9.31347e-014 -5.28629e-007 1 1 1 -0.495901 -0.233418 -2.0153 -2.95106 8.05097 0.207723 1 1 1 -0.504553 -0.232438 -2.03892 -2.95106 8.05096 0.207726 1 1 1 -0.512207 -0.238593 -1.96979 -3.10485 8.00023 -12.6313 1 1 1 -0.521096 -0.231772 -1.98328 -2.46127 3.50957 0.0754175 1 1 1 -0.534197 -0.228545 -2.0028 -7.45846 10.5025 0.686465 1 1 1 0 0 0 0 0 0 1 1 1 
0 0 0 0 0 0 1 1 1 0 0.984556 -0.0814744 0 90 0 1 1 1 0.1 -0.19154 -0.8005 0 -31.25 0 1 1 1 0.113 -0.200251 -0.379672 2.01848e-012 40 -1.56886e-012 1 1 1 0.1 -0.247853 0.0686786 -4.33734e-013 -7.49999 2.33319e-013 1 1 1 0.1 -0.162082 0.167514 -5.8928e-013 -3.74999 1.35856e-013 1 1 1 -0.1 -0.19154 -0.8005 -4.06409e-012 -31.25 5.96513e-012 1 1 1 -0.123 -0.200251 -0.379672 3.34625e-012 39.5 -2.47162e-012 1 1 1 -0.11 -0.251763 0.0682461 1.44099e-012 -7.49999 5.5335e-013 1 1 1 -0.11 -0.166859 0.167826 1.94279e-013 -3.74999 1.74103e-013 1 1 1 0 -0.19154 -0.9405 0 -3.74999 0 1 1 1 0 -0.19154 -1.0805 0 -3.74999 0 1 1 1 0 -0.19154 -1.2605 0 -3.74999 0 1 1 1 0 -0.21854 -1.4705 0 -11.25 0 1 1 1 0.195 -0.23654 -1.3705 0.964984 -27.3455 -124.556 1 1 1 0.438952 -0.22154 -1.60738 12.3618 8.56025 -85.7031 1 1 1 0.330782 -0.23154 -1.80474 -90 -30 -50 1 1 1 0.256493 -0.23846 -1.79851 9.36321e-007 -4.14788e-006 -23.5714 1 1 1 0.216962 -0.23582 -1.79594 -2.40848e-014 -2.03555e-014 -9.32381e-007 1 1 1 0.21962 -0.235187 -1.85065 6.81481e-007 -2.02101e-006 -11.7857 1 1 1 0.192492 -0.231322 -1.86442 6.81667e-006 -3.93561e-006 -9.3238e-007 1 1 1 0.170852 -0.228892 -1.87598 -10.2426 5.8616 0.525786 1 1 1 0.234928 -0.237355 -1.87713 -5.67898 5.44434 -7.57926 1 1 1 0.2068 -0.234228 -1.89376 -9.69907 6.72788 0.571464 1 1 1 0.182882 -0.234111 -1.90935 -23.0945 15.3579 3.15593 1 1 1 0.253818 -0.236643 -1.89987 -5.57328 5.5471 0.27021 1 1 1 0.233625 -0.233418 -1.92011 -5.57328 5.5471 0.27021 1 1 1 0.21588 -0.232438 -1.93793 -2.78009 2.77682 0.0673951 1 1 1 0.281769 -0.238593 -1.91566 -2.70404 2.85687 11.8503 1 1 1 0.273298 -0.231772 -1.92941 -1.96659 3.40157 0.0583982 1 1 1 0.261137 -0.228545 -1.94954 -2.40848e-014 -2.03555e-014 -9.32381e-007 1 1 1 -0.195 -0.23654 -1.3705 -1.40822 -27.1572 134.353 1 1 1 -0.36933 -0.22154 -1.66245 -10.6964 10.5728 30.6627 1 1 1 -0.432394 -0.23154 -1.87849 90 15 -15 1 1 1 -0.395354 -0.23846 -1.94318 -3.97894e-006 -5.73606e-006 23.5714 1 1 1 -0.376322 -0.23582 -1.97793 8.03807e-014 -2.32265e-014 4.73683e-007 1 1 1 -0.427027 -0.235187 -1.99864 -2.28534e-006 -2.64889e-006 11.7857 1 1 1 -0.428037 -0.231322 -2.02904 8.03807e-014 -2.32265e-014 4.73683e-007 1 1 1 -0.429378 -0.228892 -2.05354 -0.342931 3.9136 0.0117176 1 1 1 -0.457495 -0.237355 -1.99596 -1.27674 3.71765 7.89668 1 1 1 -0.460679 -0.234228 -2.02848 8.03807e-014 -2.32265e-014 4.73683e-007 1 1 1 -0.464705 -0.234111 -2.05674 -0.68323 3.8688 0.0230782 1 1 1 -0.486084 -0.236643 -1.98844 5.05877e-013 9.31347e-014 -5.28629e-007 1 1 1 -0.495901 -0.233418 -2.0153 -2.70227 7.38057 0.174321 1 1 1 -0.504553 -0.232438 -2.03892 -2.70227 7.38057 0.174322 1 1 1 -0.512207 -0.238593 -1.96979 -2.91304 7.3096 -11.5881 1 1 1 -0.521096 -0.231772 -1.98328 -2.25571 3.21727 0.0633558 1 1 1 -0.534197 -0.228545 -2.0028 -6.82453 9.63165 0.575649 1 1 1 0 0 0 0 0 0 1 1 1 
